<?xml version="1.0" encoding="utf-8"?>
<!-- Generator: Adobe Illustrator 21.1.0, SVG Export Plug-In . SVG Version: 6.00 Build 0)  -->
<svg version="1.1" id="Ebene_2" xmlns="http://www.w3.org/2000/svg" xmlns:xlink="http://www.w3.org/1999/xlink" x="0px" y="0px"
	 viewBox="0 0 300 100" style="enable-background:new 0 0 300 100;" xml:space="preserve">
<style type="text/css">
	.st0{fill:#D91261;}
	.st1{fill:#D91664;}
	.st2{fill:#D91462;}
	.st3{fill:none;stroke:#646363;stroke-miterlimit:10;}
</style>
<g>
	<g>
		<path class="st0" d="M26.9,39.9"/>
		<path class="st0" d="M27.9,41c0,0-2.3,4-2.7,4.9C20.8,55.7,23.3,62.5,33,67c1.8,0.8,3.7,1.5,5.6,2.1c13.1,4.3,26.7,5.4,40.3,6.1
			c19.6,0.9,39.3,0.2,58.8-1.3c19.2-1.5,38.4-3.9,57.2-8c15.3-3.2,84.3-26,22.1-2.9l0,0c-0.6,0.3-2,0.8-2,0.8s-40.2,14.3-74.3,17.1
			c-24.3,2.3-47.8,3.6-71.8,2c-11.3-0.8-22.5-2.6-33.1-6.9c-5.8-2.3-10.9-5.7-14.6-10.9c-0.3-0.5-0.5-0.9-0.8-1.4
			c-0.2-0.9-1.5-6.3-1.5-6.3S18.5,57,20.2,50c2.7-6.8,6.7-10.1,6.7-10.1"/>
		<path class="st0" d="M50.3,33.9l0.2,0.1c0,0,0,0,0.9,1.8c-0.5,0.1-1,0.2-1.5,0.2c-3.4-4.1-7.6-3.2-11.9-2.2
			c-0.3-0.3-1.1-0.9-1.1-0.9S46.3,30,50.3,33.9z"/>
		<path class="st0" d="M26.9,39.9c0,0,3.5-3.4,6-4.9c0.7,0,1.5,0,2.2,0.1C32.7,37.1,28,41,28,41"/>
		<path class="st1" d="M35.1,35c-0.7,0-1.5,0-2.2-0.1c0.2-0.2,2.9-1.6,4.1-2c0.3,0.3,0.7,0.6,1,0.9C37,34.3,36,34.6,35.1,35z"/>
		<path class="st2" d="M51.3,35.8c0,0,0.4,0.8,0.7,1.2c0.4,1,0.7,3.2,0.7,3.2S52.3,43.9,52,45c-0.3,1-0.9,3-0.9,3s-1.4,3.6-4.5,7.8
			c-3,2.8-6.2,5.7-9.8,8c-0.7,0.2-1.3,0.4-2,0.6c-2.8,0.1-3.2-1.9-3.5-3.9c-0.4-2.7,0.5-5.2,0.8-7.9c0.2-1.8,1.7-2.2,3.2-2.5
			c3.1-0.6,6.1-1.6,8.8-3.2c4.3-2.4,7.2-5.7,5.9-10.9C50.5,35.9,51.3,35.8,51.3,35.8"/>
		<path class="st0" d="M43,37.7c0,3.5-4.5,9.4-7.9,10.2c-1.1,0.3-2.2,0.2-1.7-1.3c1.2-3.8,2.5-7.6,5.3-10.6c0.9-0.9,1.9-1.4,3.1-0.8
			C43,35.7,43,36.7,43,37.7z"/>
	</g>
	<path class="st0" d="M154.5,39.4h9.3l-1.8,4.2h-9.3L154.5,39.4z"/>
	<path class="st0" d="M175.1,37.3c2.3-2.8,4.6-4.3,7-4.3c1,0,1.7,0.3,2.1,0.8c0.3,0.3,0.5,0.9,0.7,1.7l0.6-1.9l3.9-0.3l-2.5,8.4
		c-0.4,1.2-0.6,2.1-0.7,2.7c-0.3,1.2-0.5,2.1-0.5,2.6c0,0.2,0,0.4,0.1,0.4c0.1,0.1,0.2,0.1,0.3,0.1c0.2,0,0.4-0.1,0.6-0.2
		c0.2-0.2,0.4-0.4,0.7-0.7c0.1-0.1,0.3-0.4,0.6-0.7s0.5-0.7,0.7-0.9l0.8,0.5c-1,1.4-2,2.5-2.9,3.4s-1.9,1.2-2.8,1.2
		c-0.6,0-1.1-0.2-1.7-0.6c-0.5-0.4-0.8-1-0.8-1.8c0-0.3,0.2-1,0.5-2.2c0,0,0,0-0.1,0.2s-0.4,0.5-0.7,0.9c-0.7,1-1.4,1.8-2.4,2.4
		c-0.9,0.7-1.9,1-3,1c-1,0-1.9-0.4-2.8-1.1s-1.3-1.9-1.3-3.6C171.7,42.8,172.9,40.1,175.1,37.3z M183.8,35.4
		c-0.2-0.5-0.7-0.8-1.3-0.8c-1.4,0-2.8,1.5-4.2,4.6c-1.3,2.7-1.9,4.8-1.9,6.3c0,0.6,0.2,1.1,0.5,1.5s0.7,0.6,1.2,0.6
		c1.3,0,2.7-1.6,4.3-4.7c1.1-2.7,1.7-4.8,1.7-6.3C184,36.1,183.9,35.7,183.8,35.4z"/>
	<path class="st0" d="M192.3,45.9c0.1-0.5,0.2-1,0.4-1.5l2-6.8c0.1-0.3,0.2-0.6,0.2-0.8s0.1-0.4,0.1-0.7c0-0.5-0.2-0.8-0.5-0.9
		s-0.9-0.2-1.6-0.3V34c2.6-0.2,4.5-0.4,5.8-0.7c1.3-0.2,2-0.3,2.1-0.3l-1.7,5.5l-1.8,5.5c-0.1,0.3-0.2,0.6-0.3,1
		c-0.2,0.6-0.3,1.1-0.3,1.4c0,0.3,0.1,0.5,0.2,0.7s0.4,0.2,0.6,0.2c0.6,0,1.4-0.6,2.4-1.7c1-1.1,1.9-2.6,2.7-4.5
		c0.6-1.2,1-2.4,1.5-3.7c0.3-0.8,0.7-2.2,1.3-4.1h4.5l-1.4,5c-0.1,0.2-0.3,1.1-0.8,2.7s-0.7,2.5-0.8,2.9c-0.2,0.6-0.3,1.2-0.5,1.7
		c-0.1,0.5-0.2,0.9-0.2,1.1c0,0.2,0.1,0.4,0.2,0.5c0.1,0.1,0.3,0.2,0.4,0.2c0.4,0,0.9-0.4,1.6-1.2c0.4-0.5,0.7-0.9,1-1.4l0.8,0.5
		c-0.7,1.3-1.6,2.4-2.7,3.3s-2.2,1.4-3.4,1.4c-1,0-1.7-0.3-2.2-0.8c-0.3-0.4-0.4-0.8-0.4-1.4c0-0.6,0-1.1,0.1-1.5s0.3-1.1,0.7-2.2
		h-0.1c-1.5,2.1-2.7,3.5-3.4,4.2c-1.2,1.2-2.5,1.8-3.8,1.8c-0.6,0-1.2-0.2-1.7-0.5c-0.8-0.5-1.2-1.3-1.2-2.4
		C192.2,46.9,192.2,46.5,192.3,45.9z"/>
	<path class="st0" d="M212.8,44.2l1,0.1c0.2,1.8,0.7,3,1.4,3.7c0.8,0.7,1.5,1.1,2.3,1.1c0.6,0,1.2-0.2,1.5-0.6s0.6-0.8,0.6-1.4
		c0-0.5-0.2-1-0.5-1.6s-0.7-1.1-1.2-1.7l-1.4-1.7c-0.6-0.6-1.1-1.4-1.6-2.2c-0.4-0.8-0.6-1.7-0.6-2.5c0-1.2,0.5-2.2,1.4-3.1
		c0.9-0.9,2.2-1.3,3.9-1.3c0.7,0,1.4,0.1,2.1,0.4c0.7,0.3,1.2,0.4,1.5,0.4s0.5-0.1,0.7-0.2s0.3-0.3,0.4-0.6h1.1l-0.8,5.5l-1-0.1
		c-0.2-1.5-0.7-2.6-1.3-3.3s-1.3-1-2-1s-1.2,0.2-1.6,0.6s-0.5,0.8-0.5,1.3c0,0.4,0.1,0.8,0.4,1.2s0.7,1,1.4,1.9l1.9,2.2
		c0.4,0.5,0.8,1.1,1.1,1.8s0.5,1.4,0.5,2.1c0,1.5-0.5,2.6-1.6,3.5s-2.4,1.3-4,1.3c-0.7,0-1.4-0.1-2.1-0.4c-0.8-0.3-1.2-0.4-1.4-0.4
		c-0.3,0-0.5,0.1-0.7,0.2c-0.2,0.2-0.3,0.4-0.4,0.6h-1L212.8,44.2z"/>
	<path class="st0" d="M226.8,46.6c0.1-0.4,0.2-1,0.5-1.9l2.8-9.8h-1.9v-1.2c1.3-0.5,2.3-1,3.2-1.6c1.5-1,2.8-2.3,3.8-3.9h1.4
		l-1.5,5.2h2.7V35h-3.2l-2.4,8.3c-0.2,0.7-0.4,1.4-0.5,1.8c-0.2,0.8-0.3,1.4-0.3,1.7c0,0.2,0.1,0.4,0.2,0.4s0.3,0.1,0.4,0.1
		c0.4,0,0.8-0.3,1.4-0.9s1.1-1.3,1.5-2l0.8,0.5c-1.1,1.6-2,2.7-2.7,3.4c-1.1,1.1-2.4,1.6-3.6,1.6c-0.7,0-1.4-0.2-1.8-0.7
		c-0.5-0.5-0.7-1.1-0.7-1.8C226.7,47.4,226.7,47,226.8,46.6z"/>
	<path class="st0" d="M236.9,49.7c1-3.4,1.9-6.4,2.5-8.9c0.8-2.7,1.1-4.2,1.1-4.7c0-0.4-0.2-0.7-0.5-0.9c-0.3-0.1-0.8-0.2-1.6-0.2
		v-0.9c1.6-0.1,3-0.2,4.1-0.4c0.7-0.1,1.9-0.3,3.7-0.6l-2.1,6.4h0.2c1.1-2,1.9-3.4,2.6-4.2c1.1-1.5,2.2-2.2,3.3-2.2
		c0.7,0,1.3,0.2,1.6,0.7c0.4,0.5,0.5,1,0.5,1.6c0,0.7-0.2,1.3-0.6,1.9s-0.9,0.8-1.6,0.8c-0.3,0-0.6-0.1-0.9-0.2s-0.5-0.3-0.7-0.5
		l-0.4-0.4c-0.1-0.1-0.1-0.1-0.2-0.2s-0.2-0.1-0.3-0.1c-0.5,0-1.1,0.6-1.9,1.9c-0.8,1.2-1.4,2.5-2,3.8c-0.4,0.9-0.8,2.2-1.4,3.8
		c-0.5,1.6-0.9,2.8-1.2,3.5C241.1,49.7,236.9,49.7,236.9,49.7z"/>
	<path class="st0" d="M252.5,46.2c0.1-0.4,0.2-0.8,0.4-1.4l2.3-8.1c0-0.1,0-0.2,0.1-0.3c0-0.1,0-0.2,0-0.3c0-0.5-0.2-0.8-0.5-0.9
		c-0.3-0.1-0.9-0.2-1.8-0.2v-0.9c0.7,0,1.7-0.1,3.1-0.3c1.4-0.1,2.3-0.3,2.9-0.4l1.6-0.3l-2.9,10.2c-0.2,0.9-0.4,1.5-0.5,1.8
		c-0.2,0.9-0.3,1.4-0.3,1.7s0.1,0.4,0.2,0.5s0.3,0.1,0.4,0.1c0.4,0,0.9-0.3,1.4-0.9s1.1-1.3,1.5-2l0.8,0.5c-1.2,1.7-2.2,2.9-2.8,3.5
		c-1.1,1-2.2,1.5-3.4,1.5c-0.7,0-1.3-0.2-1.9-0.6c-0.5-0.4-0.8-1-0.8-1.9C252.3,47.3,252.3,46.8,252.5,46.2z M261.4,25.8
		c0.5,0.5,0.7,1,0.7,1.7s-0.2,1.2-0.7,1.7s-1.1,0.7-1.8,0.7c-0.7,0-1.3-0.2-1.8-0.7s-0.7-1-0.7-1.7s0.2-1.2,0.7-1.7s1.1-0.7,1.8-0.7
		C260.3,25.1,260.9,25.3,261.4,25.8z"/>
	<path class="st0" d="M265.4,37.3c2.3-2.8,4.6-4.3,7-4.3c1,0,1.7,0.3,2.1,0.8c0.3,0.3,0.5,0.9,0.7,1.7l0.6-1.9l3.9-0.3l-2.5,8.4
		c-0.4,1.2-0.6,2.1-0.7,2.7c-0.3,1.2-0.5,2.1-0.5,2.6c0,0.2,0,0.4,0.1,0.4c0.1,0.1,0.2,0.1,0.3,0.1c0.2,0,0.4-0.1,0.6-0.2
		c0.2-0.2,0.4-0.4,0.7-0.7c0.1-0.1,0.3-0.4,0.6-0.7s0.5-0.7,0.7-0.9l0.8,0.5c-1,1.4-2,2.5-2.9,3.4s-1.9,1.2-2.8,1.2
		c-0.6,0-1.1-0.2-1.7-0.6c-0.5-0.4-0.8-1-0.8-1.8c0-0.3,0.2-1,0.5-2.2c0,0,0,0-0.1,0.2s-0.4,0.5-0.7,0.9c-0.7,1-1.4,1.8-2.4,2.4
		c-0.9,0.7-1.9,1-3,1c-1,0-1.9-0.4-2.8-1.1s-1.3-1.9-1.3-3.6C262.1,42.8,263.2,40.1,265.4,37.3z M274.2,35.4
		c-0.2-0.5-0.7-0.8-1.3-0.8c-1.4,0-2.8,1.5-4.2,4.6c-1.3,2.7-1.9,4.8-1.9,6.3c0,0.6,0.2,1.1,0.5,1.5s0.7,0.6,1.2,0.6
		c1.3,0,2.7-1.6,4.3-4.7c1.1-2.7,1.7-4.8,1.7-6.3C274.3,36.1,274.3,35.7,274.2,35.4z"/>
	<g>
		<path class="st0" d="M63.5,65.4h-2l0.3-9.8c0.1-2.9,0.1-5.6-0.1-8c-0.1-2.4-0.4-4.8-0.7-7.1c-0.4-2.5-0.9-4.1-1.5-4.6
			s-1.7-0.8-3.3-0.8v-1.9l2.5-0.4c1.8-0.3,3.3-0.5,4.5-0.7s2.9-0.5,5.1-0.9c0.9,2.6,1.5,6.7,1.9,12.5c0.2,2.9,0.3,6.7,0.4,11.5
			c1.9-1.9,3.7-3.9,5.4-5.9c2.9-3.4,4.3-5.9,4.3-7.4c0-0.8-0.6-1.8-1.7-3c-1.1-1.1-1.7-2.3-1.7-3.5s0.4-2.2,1.3-3
			c0.8-0.8,1.8-1.1,3-1.1c1.3,0,2.4,0.4,3.3,1.3c1,0.9,1.4,2.2,1.4,3.8c0,3.1-2.2,7.4-6.5,13c-3.4,4.3-7.3,8.4-11.5,12.2L63.5,65.4z
			"/>
		<path class="st0" d="M87.9,58.3c0.2-0.8,0.5-2,1-3.7L94.7,35h-3.9v-2.5c2.6-1,4.7-2,6.4-3.2c3.1-2,5.7-4.6,7.7-7.8h2.8l-3,10.5
			h5.5v3h-6.4l-5,16.7c-0.4,1.5-0.8,2.7-1,3.7c-0.4,1.7-0.6,2.8-0.6,3.5c0,0.4,0.1,0.7,0.4,0.9c0.3,0.1,0.5,0.2,0.7,0.2
			c0.7,0,1.7-0.6,2.8-1.8c1.1-1.2,2.2-2.5,3.1-4l1.7,1c-2.3,3.2-4.1,5.5-5.5,6.8c-2.3,2.1-4.8,3.2-7.4,3.2c-1.5,0-2.8-0.5-3.8-1.4
			s-1.5-2.1-1.5-3.5C87.7,59.7,87.8,59.1,87.9,58.3z"/>
		<path class="st0" d="M115.3,39.7c4.7-5.7,9.4-8.5,14.2-8.5c2,0,3.4,0.5,4.3,1.6c0.6,0.7,1,1.8,1.5,3.3l1.3-3.8l8-0.5l-5,16.8
			c-0.7,2.4-1.2,4.2-1.5,5.5c-0.7,2.4-1,4.1-1,5.2c0,0.4,0.1,0.7,0.3,0.9s0.4,0.2,0.7,0.2c0.5,0,0.9-0.2,1.3-0.5
			c0.4-0.3,0.9-0.8,1.4-1.4c0.3-0.3,0.7-0.7,1.3-1.5c0.6-0.7,1.1-1.3,1.5-1.8l1.6,1.1c-2.1,2.9-4.1,5.1-6,6.7
			c-1.9,1.6-3.8,2.4-5.7,2.4c-1.2,0-2.3-0.4-3.4-1.2c-1.1-0.8-1.7-2-1.7-3.6c0-0.6,0.3-2.1,1-4.5c0.1-0.1,0,0.1-0.3,0.5
			s-0.7,1-1.3,1.9c-1.4,1.9-3,3.6-4.8,4.9s-3.9,2-6.2,2c-2,0-3.9-0.7-5.7-2.1c-1.8-1.4-2.6-3.9-2.6-7.3
			C108.5,50.6,110.8,45.2,115.3,39.7z M133.1,35.8c-0.5-1.1-1.4-1.6-2.7-1.6c-2.8,0-5.6,3.1-8.6,9.2c-2.6,5.5-3.9,9.6-3.9,12.6
			c0,1.1,0.3,2.1,0.9,3s1.4,1.3,2.4,1.3c2.6,0,5.4-3.1,8.7-9.5c2.3-5.3,3.5-9.5,3.5-12.7C133.5,37.1,133.4,36.3,133.1,35.8z"/>
	</g>
</g>
<g>
	<line class="st3" x1="280.3" y1="34" x2="289.9" y2="34"/>
	<line class="st3" x1="261" y1="34" x2="267.6" y2="34"/>
	<line class="st3" x1="225.6" y1="34" x2="227.5" y2="34"/>
	<line class="st3" x1="211" y1="34" x2="214.9" y2="34"/>
	<line class="st3" x1="201.2" y1="34" x2="204.3" y2="34"/>
	<line class="st3" x1="190" y1="34" x2="192.1" y2="34"/>
	<line class="st3" x1="145" y1="34" x2="177.3" y2="34"/>
	<line class="st3" x1="110.7" y1="34" x2="119.5" y2="34"/>
	<line class="st3" x1="85.9" y1="34" x2="89.9" y2="34"/>
	<line class="st3" x1="69.5" y1="34" x2="76.2" y2="34"/>
	<line class="st3" x1="51" y1="34" x2="55.6" y2="34"/>
	<line class="st3" x1="10.3" y1="34" x2="32.4" y2="34"/>
	<line class="st3" x1="278" y1="41.8" x2="289.8" y2="41.8"/>
	<line class="st3" x1="268" y1="41.8" x2="272.4" y2="41.8"/>
	<line class="st3" x1="258.8" y1="41.8" x2="262.1" y2="41.8"/>
	<line class="st3" x1="245" y1="41.8" x2="252.9" y2="41.8"/>
	<line class="st3" x1="233.3" y1="41.8" x2="238.1" y2="41.8"/>
	<line class="st3" x1="222.5" y1="41.8" x2="227.1" y2="41.8"/>
	<line class="st3" x1="208.1" y1="41.8" x2="215" y2="41.8"/>
	<line class="st3" x1="198.8" y1="41.8" x2="201.3" y2="41.8"/>
	<line class="st3" x1="187.6" y1="41.8" x2="192.4" y2="41.8"/>
	<line class="st3" x1="178" y1="41.8" x2="181.6" y2="41.8"/>
	<line class="st3" x1="163.7" y1="41.8" x2="171.4" y2="41.8"/>
	<line class="st3" x1="142.3" y1="41.8" x2="152" y2="41.8"/>
	<line class="st3" x1="123.5" y1="41.8" x2="132.1" y2="41.8"/>
	<line class="st3" x1="102.5" y1="41.8" x2="112.4" y2="41.8"/>
	<line class="st3" x1="85" y1="41.8" x2="91.7" y2="41.8"/>
	<line class="st3" x1="70.4" y1="41.8" x2="79.2" y2="41.8"/>
	<line class="st3" x1="53" y1="41.8" x2="60.6" y2="41.8"/>
	<line class="st3" x1="10.2" y1="41.8" x2="23.3" y2="41.8"/>
	<line class="st3" x1="277.3" y1="50" x2="289.7" y2="50"/>
	<line class="st3" x1="269.4" y1="50" x2="271.7" y2="50"/>
	<line class="st3" x1="258.2" y1="50" x2="262.8" y2="50"/>
	<line class="st3" x1="242.1" y1="50" x2="252.2" y2="50"/>
	<line class="st3" x1="232.4" y1="50" x2="236.1" y2="50"/>
	<line class="st3" x1="221.8" y1="50" x2="226.5" y2="50"/>
	<line class="st3" x1="207.2" y1="50" x2="211.5" y2="50"/>
	<line class="st3" x1="198" y1="50" x2="201.3" y2="50"/>
	<line class="st3" x1="187" y1="50" x2="192" y2="50"/>
	<line class="st3" x1="178.8" y1="50" x2="181.3" y2="50"/>
	<line class="st3" x1="140.2" y1="50" x2="172.8" y2="50"/>
	<line class="st3" x1="119.7" y1="50" x2="129.2" y2="50"/>
	<line class="st3" x1="100" y1="50" x2="108.3" y2="50"/>
	<line class="st3" x1="79.6" y1="50" x2="89.1" y2="50"/>
	<line class="st3" x1="70.8" y1="50" x2="74" y2="50"/>
	<line class="st3" x1="50.8" y1="50" x2="61" y2="50"/>
	<line class="st3" x1="10.1" y1="50" x2="18.9" y2="50"/>
	<line class="st3" x1="236.6" y1="57.3" x2="289.7" y2="57.3"/>
	<line class="st3" x1="145.6" y1="57.3" x2="219.8" y2="57.3"/>
	<line class="st3" x1="138" y1="57.3" x2="140.6" y2="57.3"/>
	<line class="st3" x1="118.9" y1="57.3" x2="124.4" y2="57.3"/>
	<line class="st3" x1="105.3" y1="57.3" x2="107.7" y2="57.3"/>
	<line class="st3" x1="97.8" y1="57.3" x2="101" y2="57.3"/>
	<line class="st3" x1="73.4" y1="57.3" x2="87.1" y2="57.3"/>
	<line class="st3" x1="46" y1="57.3" x2="61.2" y2="57.3"/>
	<line class="st3" x1="10.1" y1="57.3" x2="17.8" y2="57.3"/>
	<line class="st3" x1="216.5" y1="65" x2="289.6" y2="65"/>
	<line class="st3" x1="138.3" y1="65" x2="193.3" y2="65"/>
	<line class="st3" x1="122.3" y1="65" x2="129.5" y2="65"/>
	<line class="st3" x1="97.4" y1="65" x2="111.9" y2="65"/>
	<line class="st3" x1="65" y1="65" x2="88.7" y2="65"/>
	<line class="st3" x1="36.3" y1="65" x2="60.9" y2="65"/>
	<line class="st3" x1="10" y1="65" x2="19.6" y2="65"/>
</g>
</svg>
